<svg width="16" height="16" viewBox="0 0 16 16" fill="none" xmlns="http://www.w3.org/2000/svg">
<rect width="16" height="16" rx="4" fill="white"/>
<path d="M6.04437 8.99707C6.04437 9.11556 6.01703 9.22493 5.96234 9.3252C5.91221 9.4209 5.83474 9.50977 5.72992 9.5918C5.60232 9.69206 5.43142 9.77181 5.21722 9.83105C5.00759 9.8903 4.76149 9.91992 4.47894 9.91992C4.26931 9.91992 4.06195 9.89941 3.85687 9.8584C3.65179 9.81283 3.4695 9.73991 3.31 9.63965C3.14594 9.54395 3.00922 9.41862 2.89984 9.26367C2.79502 9.10417 2.73578 8.91048 2.72211 8.68262H1.13617C1.13617 8.98796 1.20909 9.28874 1.35492 9.58496C1.50075 9.88118 1.71495 10.1432 1.9975 10.3711C2.27549 10.6035 2.61957 10.7904 3.02972 10.9316C3.44444 11.0729 3.9184 11.1436 4.4516 11.1436C4.93011 11.1436 5.36534 11.0889 5.75726 10.9795C6.14919 10.8701 6.48643 10.7174 6.76898 10.5215C7.04698 10.3255 7.26117 10.0908 7.41156 9.81738C7.56651 9.54395 7.64398 9.24316 7.64398 8.91504C7.64398 8.5778 7.57107 8.28613 7.42523 8.04004C7.2794 7.79395 7.07432 7.57975 6.81 7.39746C6.54567 7.22428 6.22666 7.07845 5.85297 6.95996C5.47927 6.84147 5.06683 6.74121 4.61566 6.65918C4.29209 6.60449 4.02321 6.54297 3.80902 6.47461C3.59939 6.40625 3.43532 6.33105 3.31683 6.24902C3.18923 6.17155 3.10036 6.08268 3.05023 5.98242C3.0001 5.8776 2.97504 5.76139 2.97504 5.63379C2.97504 5.51074 3.00466 5.39453 3.0639 5.28516C3.12315 5.17122 3.21202 5.07324 3.33051 4.99121C3.44899 4.90007 3.59939 4.82943 3.78168 4.7793C3.96853 4.72461 4.185 4.69727 4.43109 4.69727C4.69997 4.69727 4.93467 4.73372 5.13519 4.80664C5.33571 4.875 5.49978 4.96842 5.62738 5.08691C5.73676 5.18717 5.81879 5.30111 5.87347 5.42871C5.93272 5.55176 5.96234 5.68164 5.96234 5.81836H7.59613C7.59613 5.48568 7.52321 5.17578 7.37738 4.88867C7.23155 4.60156 7.02419 4.35319 6.75531 4.14355C6.48187 3.93392 6.14919 3.76986 5.75726 3.65137C5.36534 3.52832 4.92328 3.4668 4.43109 3.4668C3.9708 3.4668 3.55153 3.52604 3.17328 3.64453C2.79958 3.76302 2.48057 3.9248 2.21625 4.12988C1.94737 4.33496 1.74001 4.57422 1.59418 4.84766C1.4529 5.11654 1.38226 5.40137 1.38226 5.70215C1.38226 6.0166 1.4529 6.29232 1.59418 6.5293C1.73545 6.76628 1.93142 6.97135 2.18207 7.14453C2.43728 7.32682 2.74034 7.48177 3.09125 7.60938C3.44672 7.73698 3.83864 7.84408 4.26703 7.93066C4.60883 7.99447 4.89366 8.06283 5.12152 8.13574C5.34939 8.20866 5.53396 8.28613 5.67523 8.36816C5.80739 8.45931 5.90082 8.55501 5.95551 8.65527C6.01475 8.75553 6.04437 8.86947 6.04437 8.99707Z" fill="black"/>
<path d="M8.51324 13.8438H10.147V10.3301C10.2336 10.4258 10.327 10.5146 10.4273 10.5967C10.5276 10.6787 10.6324 10.7516 10.7418 10.8154C10.9286 10.9202 11.1314 11 11.3502 11.0547C11.5735 11.1094 11.8173 11.1367 12.0816 11.1367C12.5464 11.1367 12.9589 11.041 13.3189 10.8496C13.6789 10.6582 13.982 10.3939 14.2281 10.0566C14.4742 9.72396 14.6587 9.32747 14.7818 8.86719C14.9094 8.4069 14.9732 7.91016 14.9732 7.37695V7.2334C14.9732 6.67741 14.9094 6.16927 14.7818 5.70898C14.6542 5.24414 14.4696 4.84538 14.2281 4.5127C13.982 4.18001 13.6767 3.92253 13.3121 3.74023C12.952 3.55794 12.5351 3.4668 12.0611 3.4668C11.8196 3.4668 11.5917 3.49414 11.3775 3.54883C11.1633 3.59896 10.9673 3.67188 10.7896 3.76758C10.6529 3.84049 10.5253 3.92708 10.4068 4.02734C10.2883 4.1276 10.1789 4.23926 10.0787 4.3623L10.0171 3.60352H8.51324V13.8438ZM13.3394 7.2334V7.37695C13.3394 7.70508 13.3075 8.01725 13.2437 8.31348C13.1799 8.60514 13.0774 8.86491 12.9361 9.09277C12.7994 9.31608 12.6216 9.49382 12.4029 9.62598C12.1887 9.75358 11.9289 9.81738 11.6236 9.81738C11.4367 9.81738 11.2658 9.79688 11.1109 9.75586C10.9559 9.71029 10.817 9.65104 10.6939 9.57812C10.5754 9.50065 10.4706 9.40951 10.3795 9.30469C10.2883 9.19987 10.2108 9.08366 10.147 8.95605V5.66797C10.2199 5.53125 10.3043 5.4082 10.4 5.29883C10.5002 5.18945 10.6164 5.09831 10.7486 5.02539C10.8625 4.95703 10.9924 4.90462 11.1382 4.86816C11.2841 4.83171 11.4413 4.81348 11.6099 4.81348C11.9153 4.81348 12.1773 4.87728 12.3961 5.00488C12.6148 5.13249 12.7948 5.30566 12.9361 5.52441C13.0728 5.74316 13.1731 6.00065 13.2369 6.29688C13.3052 6.58854 13.3394 6.90072 13.3394 7.2334Z" fill="black"/>
</svg>