<svg width="16" height="16" viewBox="0 0 16 16" fill="none" xmlns="http://www.w3.org/2000/svg">
<rect width="16" height="16" rx="8" fill="white"/>
<path fill-rule="evenodd" clip-rule="evenodd" d="M2 6.62605C2 4.5774 3.62455 3 5.53143 3C6.51438 3 7.37932 3.5099 8 4.16967C8.62068 3.5099 9.48562 3 10.4686 3C12.3754 3 14 4.5774 14 6.62605C14 8.0294 13.4591 9.26351 12.7096 10.3067C11.9615 11.3481 10.9828 12.2319 10.0458 12.95C9.68791 13.2244 9.32584 13.4774 8.99447 13.6641C8.68332 13.8394 8.32554 14 8 14C7.67446 14 7.31668 13.8394 7.00553 13.6641C6.67416 13.4774 6.31209 13.2244 5.95419 12.95C5.01718 12.2319 4.03854 11.3481 3.29039 10.3067C2.54095 9.26351 2 8.0294 2 6.62605ZM5.53143 4.13793C4.10566 4.13793 3.02857 5.29794 3.02857 6.62605C3.02857 7.69077 3.43711 8.68207 4.09561 9.59865C4.75539 10.517 5.64315 11.3273 6.53994 12.0147C6.87928 12.2747 7.19891 12.496 7.47231 12.6501C7.76593 12.8155 7.936 12.8621 8 12.8621C8.064 12.8621 8.23407 12.8155 8.52769 12.6501C8.80109 12.496 9.12072 12.2747 9.46006 12.0147C10.3569 11.3273 11.2446 10.517 11.9044 9.59865C12.5629 8.68207 12.9714 7.69077 12.9714 6.62605C12.9714 5.29794 11.8943 4.13793 10.4686 4.13793C9.64973 4.13793 8.88512 4.67915 8.4077 5.36608C8.31035 5.50615 8.15971 5.58824 8 5.58824C7.84029 5.58824 7.68965 5.50615 7.5923 5.36608C7.11488 4.67915 6.35027 4.13793 5.53143 4.13793Z" fill="black"/>
</svg>